<?xml version="1.0" encoding="utf-8"?><svg viewBox="0 0 102 29" xmlns="http://www.w3.org/2000/svg" xmlns:xlink="http://www.w3.org/1999/xlink"><style>:root>svg{display:none}:root>svg:target{display:block}</style><svg fill="none" viewBox="0 0 102 24" id="icons--arrow-left" xmlns="http://www.w3.org/2000/svg"><path d="M.94 10.94a1.5 1.5 0 0 0 0 2.12l9.545 9.547a1.5 1.5 0 1 0 2.122-2.122L4.12 12l8.486-8.485a1.5 1.5 0 1 0-2.122-2.122L.94 10.94zM102 10.5H2v3h100v-3z" fill="currentColor"/></svg><svg fill="none" viewBox="0 0 102 24" id="icons--arrow-right" xmlns="http://www.w3.org/2000/svg"><path d="M101.061 13.06a1.502 1.502 0 0 0 0-2.12l-9.546-9.547a1.5 1.5 0 1 0-2.122 2.122L97.88 12l-8.486 8.485a1.5 1.5 0 1 0 2.122 2.122l9.546-9.546zM0 13.5h100v-3H0v3z" fill="currentColor"/></svg><svg fill="none" viewBox="0 0 36 24" id="icons--burger" xmlns="http://www.w3.org/2000/svg"><path fill="#fff" d="M0 0h36v3H0zm0 10.5h36v3H0zM18 21h18v3H18z"/></svg><svg fill="none" viewBox="0 0 28 29" id="icons--close" xmlns="http://www.w3.org/2000/svg"><path fill="#fff" d="M2.125.456 27.58 25.912l-2.122 2.121L.004 2.577z"/><path fill="#fff" d="M0 25.456 25.456 0l2.121 2.121L2.121 27.577z"/></svg><svg fill="none" viewBox="0 0 29 28" id="icons--fc" xmlns="http://www.w3.org/2000/svg"><g clip-path="url(#ea)"><path fill-rule="evenodd" clip-rule="evenodd" d="M28.795 26.37c0 .845-.682 1.538-1.537 1.538h-7.113V17.1h3.626l.542-4.213h-4.168v-2.685c0-1.224.335-2.047 2.09-2.047h2.23v-3.78c-.39-.054-1.711-.162-3.248-.162-3.216 0-5.413 1.96-5.413 5.566v3.108h-3.638V17.1h3.638v10.808H2.434A1.536 1.536 0 0 1 .898 26.37V1.538A1.542 1.542 0 0 1 2.435 0h24.823c.844 0 1.537.682 1.537 1.538V26.37zm-12.991 1.538h4.34-4.34z" fill="#fff"/></g><defs><clipPath id="ea"><path fill="#fff" transform="translate(.897)" d="M0 0h27.897v27.897H0z"/></clipPath></defs></svg><svg fill="none" viewBox="0 0 29 28" id="icons--tiktok" xmlns="http://www.w3.org/2000/svg"><g clip-path="url(#fa)"><path d="M25.22 0H4.152A3.366 3.366 0 0 0 .795 3.37v21.273c0 1.743 1.505 3.254 3.357 3.254h21.183a3.366 3.366 0 0 0 3.357-3.37V3.37C28.577 1.51 27.072 0 25.22 0zm-2.547 12.205h-.463c-1.62 0-3.241-.813-4.167-2.208v7.671c0 3.139-2.547 5.696-5.672 5.696-3.126 0-5.672-2.557-5.672-5.696 0-3.138 2.546-5.695 5.672-5.695h.347v2.79h-.347c-1.621 0-2.894 1.278-2.894 2.905 0 1.628 1.273 2.906 2.894 2.906 1.62 0 3.01-1.278 3.01-2.906V4.65h2.662c.231 2.44 2.2 4.3 4.514 4.417l.116 3.138z" fill="#fff"/></g><defs><clipPath id="fa"><path fill="#fff" transform="translate(.795)" d="M0 0h27.897v27.897H0z"/></clipPath></defs></svg><svg fill="none" viewBox="0 0 28 28" id="icons--vk" xmlns="http://www.w3.org/2000/svg"><g clip-path="url(#ga)"><path fill-rule="evenodd" clip-rule="evenodd" d="M9.671 0h8.555c7.812 0 9.671 1.86 9.671 9.671v8.555c0 7.812-1.86 9.671-9.67 9.671H9.67c-7.81 0-9.67-1.86-9.67-9.67V9.67C0 1.86 1.86 0 9.671 0zm13.173 9.611c.13-.431 0-.748-.615-.748h-2.034c-.517 0-.756.274-.885.576 0 0-1.035 2.521-2.5 4.159-.474.474-.69.625-.948.625-.13 0-.317-.151-.317-.582V9.61c0-.517-.15-.748-.581-.748h-3.197c-.323 0-.517.24-.517.468 0 .49.732.603.808 1.982v2.996c0 .657-.119.776-.377.776-.69 0-2.367-2.533-3.362-5.43-.195-.564-.39-.792-.91-.792H5.373c-.58 0-.697.274-.697.576 0 .538.69 3.21 3.21 6.745 1.682 2.414 4.05 3.722 6.205 3.722 1.293 0 1.453-.29 1.453-.791V17.29c0-.582.123-.698.532-.698.302 0 .82.151 2.026 1.315 1.38 1.38 1.606 1.998 2.382 1.998h2.035c.58 0 .871-.29.704-.864-.184-.572-.842-1.4-1.716-2.384-.474-.56-1.185-1.164-1.4-1.465-.303-.388-.216-.56 0-.906 0 0 2.477-3.49 2.736-4.676z" fill="#fff"/></g><defs><clipPath id="ga"><path fill="#fff" d="M0 0h27.897v27.897H0z"/></clipPath></defs></svg><svg fill="none" viewBox="0 0 29 25" id="icons--youtube" xmlns="http://www.w3.org/2000/svg"><path fill-rule="evenodd" clip-rule="evenodd" d="M22.583 4.473a3.039 3.039 0 0 1 2.115 2.16c.514 1.917.494 5.913.494 5.913s0 3.976-.494 5.893a3.04 3.04 0 0 1-2.115 2.16c-1.878.504-9.39.504-9.39.504s-7.493 0-9.391-.525a3.039 3.039 0 0 1-2.115-2.16c-.495-1.896-.495-5.892-.495-5.892s0-3.976.495-5.893c.276-1.05 1.107-1.897 2.115-2.18 1.878-.504 9.39-.504 9.39-.504s7.513 0 9.39.524zM10.8 8.853l6.247 3.673-6.247 3.673V8.853z" fill="#fff"/></svg></svg>